<?xml version="1.0" encoding="iso-8859-1"?>
<!-- Generator: Adobe Illustrator 25.0.1, SVG Export Plug-In . SVG Version: 6.00 Build 0)  -->
<svg version="1.1" id="Layer_1" xmlns="http://www.w3.org/2000/svg" xmlns:xlink="http://www.w3.org/1999/xlink" x="0px" y="0px"
	 viewBox="0 0 1734.158 1734.158" style="enable-background:new 0 0 1734.158 1734.158;" xml:space="preserve">
<g id="operation">
	<g>
		<g>
			<path style="fill:#666666;" d="M639.369,189.71c0.081,1.875,0.304,17.282,0.67,46.217c0.366,28.938,0.745,55.809,1.135,80.612
				l-19.487,9.04c-20.142-17.751-39.407-34.608-57.796-50.569c-18.391-15.961-30.667-26.829-36.833-32.606l16.657-17.069
				c1.4,1.46,10.712,10.084,27.933,25.869c17.221,15.787,33.441,30.438,48.656,43.955l0.406-0.188
				c-0.574-21.324-1.269-43.58-2.083-66.767c-0.816-23.187-1.296-35.505-1.441-36.951L639.369,189.71z"/>
			<path style="fill:#666666;" d="M844.534,221.192c0.77,6.952,0.225,13.704-1.631,20.254c-1.857,6.552-4.994,12.387-9.41,17.506
				c-3.672,4.256-7.994,7.651-12.967,10.186s-10.632,4.153-16.978,4.855c-5.991,0.663-11.776,0.325-17.356-1.012
				c-5.582-1.336-10.629-3.68-15.143-7.031c-5.29-3.865-9.577-8.833-12.86-14.907c-3.284-6.072-5.316-12.643-6.099-19.715
				c-0.77-6.952-0.359-13.417,1.23-19.398c1.59-5.979,4.441-11.543,8.555-16.69c3.744-4.684,8.295-8.451,13.653-11.299
				c5.358-2.849,11.181-4.621,17.468-5.316c6.523-0.722,12.568-0.353,18.133,1.106c5.564,1.459,10.713,4.034,15.443,7.72
				c5.203,4.176,9.303,9.075,12.297,14.698C841.863,207.774,843.752,214.121,844.534,221.192z M823.325,224.035
				c-0.537-4.866-1.836-9.542-3.893-14.03c-2.059-4.486-4.893-8.123-8.502-10.907c-2.174-1.741-4.666-2.967-7.476-3.677
				c-2.812-0.709-5.669-0.905-8.575-0.583c-3.5,0.387-6.463,1.272-8.891,2.651c-2.43,1.38-4.67,3.384-6.72,6.013
				c-2.413,3.151-4.132,7.019-5.155,11.606c-1.022,4.588-1.281,9.167-0.775,13.735c0.584,5.281,1.891,10.047,3.923,14.297
				c2.03,4.25,4.976,7.813,8.837,10.689c2.16,1.623,4.598,2.765,7.312,3.425c2.715,0.661,5.496,0.833,8.343,0.518
				c3.144-0.348,6.046-1.239,8.71-2.675c2.662-1.436,4.883-3.333,6.664-5.692c2.519-3.281,4.31-7.159,5.377-11.631
				C823.57,233.302,823.845,228.722,823.325,224.035z"/>
			<path style="fill:#666666;" d="M962.816,276.631l-22.64-3.535c0.741-4.361,1.883-11.187,3.424-20.476s3.612-22.262,6.213-38.919
				c1.061-6.792,2.395-15.539,4.006-26.239c1.609-10.699,3.236-21.699,4.881-33l22.64,3.535c-1.41,8.251-3.004,17.789-4.785,28.614
				c-1.78,10.826-3.271,20.077-4.469,27.755c-2.703,17.308-4.733,30.695-6.09,40.163
				C964.638,263.998,963.578,271.365,962.816,276.631z"/>
			<path style="fill:#666666;" d="M1170.522,266.236c-3.656,8.057-9.337,14.113-17.04,18.167
				c-7.704,4.054-16.252,5.526-25.642,4.416c-4.665-0.408-9.692-1.458-15.083-3.15c-5.393-1.691-10.818-3.743-16.276-6.154
				l-14.509,32.412l-20.867-9.468c1.956-4.167,4.964-10.581,9.026-19.242c4.06-8.661,10.117-21.865,18.17-39.613
				c2.741-6.042,6.054-13.417,9.94-22.126c3.885-8.708,8.044-18.162,12.476-28.361c2.523,1.08,5.172,2.248,7.943,3.505
				s5.243,2.379,7.417,3.366c10.597,4.808,19.016,9.285,25.261,13.431c6.243,4.146,11.193,8.69,14.85,13.63
				c4.514,5.79,7.162,12.014,7.943,18.67C1174.911,252.373,1173.709,259.213,1170.522,266.236z M1148.641,257.49
				c2.198-4.845,3-9.503,2.409-13.974c-0.594-4.47-2.649-8.75-6.165-12.841c-2.288-2.613-5.01-4.848-8.162-6.707
				c-3.155-1.857-6.471-3.576-9.948-5.154c-0.381-0.172-0.814-0.37-1.304-0.591c-0.489-0.222-0.951-0.432-1.386-0.629
				c-0.321,0.708-1.992,4.283-5.013,10.724c-3.021,6.442-5.421,11.622-7.199,15.542c-1.655,3.648-3.637,8.049-5.943,13.207
				c-2.308,5.157-3.584,8.008-3.831,8.552c0.38,0.172,0.883,0.4,1.508,0.684c0.624,0.283,1.101,0.5,1.427,0.647
				c3.042,1.38,6.475,2.659,10.3,3.836c3.822,1.178,7.229,1.722,10.218,1.633c5.291,0.037,9.855-1.107,13.698-3.436
				C1143.089,266.656,1146.22,262.826,1148.641,257.49z"/>
		</g>
	</g>
</g>
<g>
	<g>
		<g>
			<path style="fill:#666666;" d="M578.634,1460.236c-3.02,5.571-7.013,9.681-11.976,12.327c-4.965,2.648-10.48,3.994-16.544,4.038
				c-5.479,0.09-11.398-0.824-17.757-2.74c-6.359-1.917-12.765-4.624-19.218-8.122c-3.987-2.161-7.772-4.35-11.357-6.564
				c-3.584-2.215-5.809-3.591-6.672-4.126l6.995-16.099c0.677,0.504,2.781,1.882,6.311,4.135c3.528,2.254,7.313,4.475,11.354,6.665
				c2.676,1.45,6.234,2.99,10.679,4.622c4.444,1.631,8.141,2.604,11.094,2.918c3.856,0.399,7.061,0.057,9.618-1.027
				c2.555-1.084,4.613-3.063,6.172-5.94c1.681-3.1,2.318-6.154,1.913-9.163c-0.406-3.007-1.902-6.572-4.486-10.693
				c-1.649-2.593-3.917-5.828-6.804-9.706c-2.887-3.876-5.302-7.53-7.242-10.963c-3.59-6.026-5.458-11.594-5.605-16.706
				c-0.148-5.112,1.061-10.033,3.625-14.764c2.45-4.52,5.557-7.969,9.325-10.348c3.766-2.378,7.826-3.951,12.18-4.72
				c5.323-1.058,11.298-0.812,17.925,0.74c6.625,1.551,13.662,4.346,21.112,8.384c3.777,2.047,7.288,4.052,10.534,6.016
				c3.246,1.964,5.169,3.143,5.77,3.536l-6.602,16.312c-0.759-0.479-2.647-1.724-5.663-3.733c-3.019-2.009-6.835-4.266-11.451-6.768
				c-2.938-1.593-6.046-2.902-9.323-3.931c-3.278-1.028-6.437-1.619-9.476-1.771c-2.693-0.168-5.259,0.311-7.702,1.436
				c-2.442,1.124-4.361,2.975-5.757,5.549c-1.254,2.313-1.697,4.945-1.329,7.898c0.367,2.953,1.931,6.642,4.694,11.062
				c1.571,2.484,3.621,5.466,6.148,8.942c2.526,3.479,4.93,7.059,7.209,10.742c3.488,5.835,5.435,11.447,5.841,16.834
				C582.576,1449.895,581.397,1455.139,578.634,1460.236z"/>
			<path style="fill:#666666;" d="M752.751,1549.537l-18.541-4.039l2.149-9.443l-0.137-0.214c-4.631,1.685-10.324,3.212-17.08,4.585
				c-6.756,1.373-13.013,1.433-18.768,0.179c-8.249-1.797-14.152-5.638-17.71-11.522c-3.559-5.883-4.391-13.177-2.494-21.881
				c1.094-5.023,2.389-10.753,3.882-17.188c1.494-6.435,2.565-11.143,3.214-14.122c1.171-5.373,2.512-11.811,4.025-19.313
				c1.511-7.502,2.396-11.836,2.65-13.006l19.065,4.154c-0.217,0.994-1.161,5.116-2.833,12.369s-3.004,13.158-3.997,17.714
				c-0.828,3.798-1.846,8.607-3.053,14.432c-1.209,5.826-2.086,9.994-2.633,12.505c-1.292,6.205-1.261,11.029,0.091,14.475
				c1.351,3.446,4.354,5.676,9.009,6.689c4.596,1.001,9.921,0.893,15.977-0.328c6.054-1.219,10.565-2.484,13.534-3.797
				c0.127-0.583,0.833-3.688,2.119-9.312c1.286-5.623,2.789-12.379,4.508-20.264c1.322-6.074,2.814-13.275,4.477-21.602
				c1.661-8.325,2.613-13.044,2.855-14.154l19.064,4.153c-0.254,1.17-1.117,4.851-2.59,11.046s-3.576,15.573-6.312,28.131
				c-1.667,7.653-3.112,14.419-4.332,20.303C757.671,1525.968,755.624,1535.786,752.751,1549.537z"/>
			<path style="fill:#666666;" d="M892.126,1449.531l-20.848,0.563l-0.477-17.659l20.848-0.563L892.126,1449.531z M894.395,1556.757
				l-19.506,0.527c0.012-1.734-0.09-7.712-0.305-17.933c-0.217-10.221-0.426-19.065-0.627-26.536
				c-0.176-6.454-0.379-13.4-0.607-20.84c-0.232-7.439-0.537-15.998-0.918-25.676l19.506-0.527
				c0.17,8.548,0.309,16.408,0.412,23.581c0.104,7.174,0.252,14.257,0.439,21.249c0.373,13.804,0.725,24.649,1.059,32.534
				C894.181,1551.022,894.362,1555.563,894.395,1556.757z"/>
			<path style="fill:#666666;" d="M1063.445,1514.995l1.627,14.748c-0.565,0.201-1.695,0.543-3.389,1.024
				c-1.694,0.48-3.526,0.967-5.495,1.454c-12.685,3.144-22.921,2.956-30.709-0.564c-7.789-3.521-12.978-10.503-15.566-20.948
				c-1.625-6.557-3.243-13.207-4.853-19.953c-1.611-6.745-3.595-14.876-5.953-24.393l-14.509,3.596l-3.387-13.665l15.29-3.79
				l-5.393-21.76l17.81-4.414l5.394,21.76l30.581-7.579l3.387,13.665l-30.581,7.579c0.302,1.219,1.05,4.422,2.242,9.606
				c1.193,5.188,2.121,9.115,2.782,11.783c0.561,2.263,1.254,5.001,2.082,8.215c0.826,3.213,1.751,6.88,2.772,10.999
				c1.754,7.08,4.945,11.771,9.573,14.072c4.628,2.303,11.401,2.348,20.321,0.137c1.043-0.258,2.197-0.559,3.465-0.904
				C1062.203,1515.318,1063.04,1515.095,1063.445,1514.995z"/>
			<path style="fill:#666666;" d="M1215.391,1410.652l-55.945,30.332c2.737,4.926,6.37,8.871,10.897,11.837
				c4.526,2.969,9.88,4.515,16.058,4.643c4.038,0.062,8.154-0.516,12.348-1.733c4.192-1.216,8.781-3.176,13.766-5.878
				c3.094-1.678,5.853-3.258,8.272-4.74c2.421-1.481,4.011-2.463,4.769-2.942l5.328,14.146c-0.654,0.422-2.178,1.367-4.572,2.836
				c-2.396,1.468-5.218,3.084-8.47,4.847c-8.655,4.693-16.853,7.761-24.589,9.2c-7.738,1.441-14.878,1.386-21.422-0.167
				c-5.491-1.238-10.823-3.721-15.998-7.443s-9.429-8.658-12.763-14.808c-3.276-6.043-5.313-11.96-6.111-17.75
				c-0.797-5.79-0.395-11.839,1.208-18.148c1.286-5.39,3.814-10.364,7.587-14.927c3.772-4.56,8.202-8.221,13.291-10.979
				c5.193-2.815,10.235-4.562,15.127-5.243c4.892-0.679,9.646-0.266,14.266,1.242c5.266,1.702,10.121,4.646,14.563,8.833
				C1207.442,1397.995,1211.573,1403.61,1215.391,1410.652z M1193.853,1409.987c-3.901-5.568-8.405-9.213-13.513-10.933
				c-5.106-1.72-10.362-1.114-15.765,1.814c-5.403,2.93-8.935,7.089-10.595,12.477c-1.66,5.389-1.537,11.408,0.372,18.058
				L1193.853,1409.987z"/>
		</g>
	</g>
</g>
<g transform="translate(0 947.64)">
	<g transform="matrix(6.6511 0 0 6.6511 -6353.9 -295.9)">
		<path id="white-arrow" style="fill:#FFFFFF;" d="M1018.146-1.114l-29.448-15.743c-1.272-0.677-1.699-2.359-0.955-3.758
			l0.556-1.045l0.556-1.045c0.744-1.398,2.379-1.983,3.65-1.306l29.609,15.785"/>
		<circle style="fill:#FBB03B;" cx="1085.794" cy="29.854" r="76.974"/>
		<circle style="fill:#FFFFFF;" cx="1085.794" cy="29.854" r="63.151"/>
		<circle style="fill:#FBB03B;" cx="1085.794" cy="29.854" r="46.152"/>
		<circle style="fill:#FFFFFF;" cx="1085.794" cy="29.854" r="32.019"/>
		<circle style="fill:#1A1A1A;" cx="1085.794" cy="29.854" r="17.745"/>
	</g>
</g>
<g id="feathers">
	<g transform="matrix(.71625 .6759 -.71625 .6759 -535.86 -1805.8)">
		<path style="fill:#FBB03B;" d="M2294.12,1212.535l-49.925,12.157c-17.082,4.16-31.083,15.648-38.373,31.485l-44.834,97.408
			l39.193-9.544c23.898-5.82,43.487-21.892,53.685-44.049L2294.12,1212.535z"/>
	</g>
	<g transform="matrix(.71625 .6759 -.71625 .6759 -535.86 -1805.8)">
		<path style="fill:#FBB03B;" d="M2376.981,1194.891l-37.112,9.037c-12.698,3.092-23.106,11.632-28.525,23.405l-33.328,72.409
			l29.134-7.095c17.765-4.326,32.326-16.274,39.907-32.744L2376.981,1194.891z"/>
	</g>
	<g transform="matrix(.71625 .6759 -.71625 .6759 -535.86 -1805.8)">
		<path style="fill:#FBB03B;" d="M2445.593,1172.739l-26.631,6.485c-9.112,2.219-16.581,8.347-20.469,16.795l-23.915,51.959
			l20.906-5.091c12.748-3.104,23.197-11.678,28.636-23.496L2445.593,1172.739z"/>
	</g>
	<path id="arrow" style="fill:#1A1A1A;" d="M683.07,781.862c-1.847-0.619-3.635-1.388-5.35-2.301L445.515,655.949L224.656,538.377
		c-7.689-4.093-10.273-14.266-5.772-22.722l3.362-6.316l3.362-6.316c4.501-8.456,14.383-11.992,22.072-7.899l220.859,117.572
		l232.363,123.696c1.61,0.857,3.146,1.847,4.596,2.96l115.54,88.748L683.07,781.862z"/>
</g>
<circle id="shine" style="fill:#FFFFFF;" cx="945.006" cy="783.169" r="59.156"/>
<g id="scatter">
	<rect x="1237.786" y="897.083" style="fill:#FBB03B;" width="41.803" height="41.762"/>
	<rect x="1409.067" y="1146.446" style="fill:#FBB03B;" width="60.939" height="60.88"/>
	<rect x="1325.114" y="1128.245" style="fill:#FBB03B;" width="37.116" height="37.08"/>
	<rect x="1196.575" y="1095.245" style="fill:#FFFFFF;" width="51.25" height="51.2"/>
	<rect x="1423.651" y="1007.046" style="fill:#FBB03B;" width="61.135" height="61.076"/>
	<rect x="1296.082" y="1037.846" style="fill:#FFFFFF;" width="51.25" height="51.2"/>
	<rect x="1513.414" y="865.548" style="fill:#FBB03B;" width="76.372" height="76.298"/>
	<rect x="1354.423" y="972.646" style="fill:#FBB03B;" width="35.715" height="35.68"/>
	<rect x="1521.442" y="1089.338" style="fill:#FBB03B;" width="37.344" height="37.308"/>
	<rect x="1139.175" y="871.446" style="fill:#FFFFFF;" width="51.25" height="51.2"/>
	<rect x="1396.777" y="892.246" style="fill:#FBB03B;" width="51.25" height="51.2"/>
	<rect x="1462.206" y="758.046" style="fill:#FBB03B;" width="51.25" height="51.2"/>
	<rect x="1365.585" y="808.046" style="fill:#FFFFFF;" width="51.25" height="51.2"/>
	<rect x="1394.938" y="701.253" style="fill:#FBB03B;" width="56.848" height="56.793"/>
	<rect x="1269.398" y="716.715" style="fill:#FFFFFF;" width="58.388" height="58.331"/>
	<rect x="1521.504" y="590.646" style="fill:#FBB03B;" width="51.25" height="51.2"/>
	<rect x="1175.518" y="660.646" style="fill:#FBB03B;" width="51.25" height="51.2"/>
	<rect x="1320.382" y="590.446" style="fill:#FBB03B;" width="51.25" height="51.2"/>
	<rect x="1212.273" y="590.246" style="fill:#FFFFFF;" width="51.25" height="51.2"/>
	<rect x="1237.453" y="518.046" style="fill:#FFFFFF;" width="51.25" height="51.2"/>
	<rect x="1388.162" y="505.046" style="fill:#FBB03B;" width="51.33" height="51.28"/>
	<rect x="1504.128" y="469.846" style="fill:#FBB03B;" width="35.515" height="35.48"/>
	<rect x="1110.393" y="696.708" style="fill:#FFFFFF;" width="51.25" height="51.2"/>
	<rect x="1164.81" y="436.715" style="fill:#FFFFFF;" width="36.12" height="36.084"/>
	<rect x="1192.667" y="425.761" style="fill:#FBB03B;" width="36.12" height="36.084"/>
	<rect x="1440.267" y="622.24" style="fill:#FFFFFF;" width="35.875" height="35.84"/>
</g>
<path id="arrow_2_" style="fill:#FFFFFF;" d="M682.145,781.622"/>
<path id="arrow_1_" style="fill:#FFFFFF;" d="M704.575,739.112"/>
<g>
	<path style="fill:#FFFFFF;" d="M454.084,937.218c34.151,91.995-201.175,273.526-201.175,273.526l306.377-74.919"/>
	<path style="fill:#FBB03B;" d="M454.084,937.218c3.698,6.492,5.787,14.065,6.541,21.772c0.358,3.859,0.413,7.759,0.228,11.65
		c-0.195,3.891-0.677,7.761-1.321,11.598c-1.264,7.69-3.433,15.163-5.92,22.482c-2.573,7.287-5.573,14.395-8.87,21.326
		c-3.351,6.903-6.973,13.647-10.788,20.257c-3.877,6.568-7.943,13.003-12.152,19.324c-8.455,12.617-17.558,24.712-27.078,36.406
		c-19.067,23.373-39.726,45.199-61.32,65.929c-10.821,10.343-21.856,20.441-33.155,30.244c-5.644,4.909-11.338,9.761-17.123,14.524
		l-8.714,7.129l-4.428,3.52l-4.572,3.572l-17.363-36.088c25.552-6.16,51.179-12.01,76.89-17.521
		c25.708-5.519,51.514-10.64,77.405-15.413c12.954-2.351,25.917-4.668,38.932-6.77c6.503-1.07,12.996-2.178,19.523-3.15
		c6.525-0.98,13.026-2.057,19.57-2.958c13.068-1.885,26.157-3.684,39.306-5.239c13.144-1.573,26.321-3.013,39.612-3.987
		c-12.24,5.27-24.595,10.073-36.982,14.743c-12.383,4.688-24.825,9.133-37.288,13.491c-6.221,2.221-12.486,4.266-18.727,6.407
		c-6.239,2.15-12.511,4.164-18.774,6.215c-12.516,4.141-25.085,8.068-37.662,11.96c-25.172,7.714-50.429,15.079-75.783,22.046
		c-25.352,6.975-50.788,13.612-76.299,19.938l-91.77,22.758l74.407-58.846l4.108-3.249l4.195-3.373l8.412-6.807
		c5.585-4.585,11.168-9.194,16.722-13.839c11.093-9.31,22.117-18.713,32.993-28.268c21.769-19.088,43.111-38.62,63.507-58.953
		c20.343-20.352,39.947-41.438,56.629-64.457c4.182-5.745,8.097-11.653,11.682-17.737c3.655-6.053,6.841-12.34,9.597-18.815
		c1.368-3.242,2.548-6.554,3.573-9.921c1.034-3.366,1.859-6.802,2.419-10.301C455.458,951.823,455.48,944.554,454.084,937.218z"/>
</g>
</svg>
