<svg xmlns="http://www.w3.org/2000/svg" viewBox="0 0 1547.3 1412.2"><defs><style>.a{fill:#fff;}.b{fill:#fbb03b;}.c{fill:#1a1a1a;}</style></defs><path d="M418.6,396.2a71.5,71.5,0,0,1,17.8,20.5,59.9,59.9,0,0,1,7.6,22.6,54,54,0,0,1-11.7,41.8,58.9,58.9,0,0,1-16,14,52.9,52.9,0,0,1-19.9,6.8,59.4,59.4,0,0,1-24.9-1.8,70.8,70.8,0,0,1-25.1-13.2A68.6,68.6,0,0,1,329.3,468a62,62,0,0,1-8.2-22.6,54,54,0,0,1,1.3-22.6,55.2,55.2,0,0,1,10.5-20.6,56.4,56.4,0,0,1,17.3-14.8,54.1,54.1,0,0,1,20.5-6.5,60.2,60.2,0,0,1,24.8,2.8A72.4,72.4,0,0,1,418.6,396.2ZM410.2,409a72.3,72.3,0,0,0-20.4-11.2,46.8,46.8,0,0,0-22.1-2.4,37.9,37.9,0,0,0-13.8,4.4,38.3,38.3,0,0,0-11.6,9.9,40.1,40.1,0,0,0-7,13.6,38.5,38.5,0,0,0-1.1,15.2,48.8,48.8,0,0,0,7,19.7A61.1,61.1,0,0,0,356,475.1a62.5,62.5,0,0,0,20.6,11.2,47.4,47.4,0,0,0,20.7,1.7,39.9,39.9,0,0,0,13.8-4.5,39.7,39.7,0,0,0,18.6-23.4A39.9,39.9,0,0,0,431,445a49.3,49.3,0,0,0-6.1-18.8A55.1,55.1,0,0,0,410.2,409Z" transform="translate(-42.4 -146.4)"/><path d="M509.3,296.4a36.8,36.8,0,0,1,7.9,23.9c0,9-3,17.4-8.9,25.2a89.2,89.2,0,0,1-9,10c-3.5,3.3-7.6,6.8-12.2,10.4l23.5,29.8-11.7,9.1q-3.1-4.4-12-15.9t-27.6-35.6l-14.7-18.7L425,310.2l5.9-4.7,4.8-3.8a150.6,150.6,0,0,1,21.9-14.6,51.6,51.6,0,0,1,18.6-6,34.7,34.7,0,0,1,18,2.9C499.8,286.5,504.8,290.7,509.3,296.4Zm-12,9.4a28,28,0,0,0-13-9.8c-4.8-1.7-10.3-1.8-16.4-.2a37.1,37.1,0,0,0-11,4.9c-3.5,2.3-7,4.7-10.5,7.5l-1.3,1-1.3,1,8.1,10.7c5,6.6,9,11.9,12,15.7l9.7,12.3c3.8,4.7,5.9,7.4,6.4,8.1l1.5-1.2,1.3-1a104.6,104.6,0,0,0,9.6-8.5,40.3,40.3,0,0,0,7.3-9.5c2.9-5.3,4.3-10.5,4-15.7S501.3,310.8,497.3,305.8Z" transform="translate(-42.4 -146.4)"/><path d="M661.6,304.8l-10.8,5.1L626,321.7l-18.7,9.1c-5.6,2.8-10.4,5.2-14.3,7l-9.5-20.4c-4.9-10.4-10.1-21.2-15.4-32.2L556.3,261q-7.2-15-15.3-30.9l14.4-6.8,17.7-8.5,25.1-12.1,10.4-5.2,5.4,11.2-10.2,4.8-23.2,11.1-11.8,5.7-9.2,4.5c2.9,6.1,5.8,12.2,8.6,18.3s5.5,11.8,8.1,17.2l8.6-4.1,8.9-4.2,25.3-12.3,11.8-5.9,5.4,11.2-13.4,6.2-23.2,11.1-9.2,4.5-9,4.3c4.9,10.2,8.9,18.3,11.8,24.2s5.4,11,7.4,15l11.6-5.5,14.6-6.9,20.2-9.9,9.1-4.5Z" transform="translate(-42.4 -146.4)"/><path d="M794,262.7l-8.9,11.5-17-12.1q-14.7-10.5-45.3-32.9v-.8a47.5,47.5,0,0,0,7.9-5.8,43.3,43.3,0,0,0,7.8-8.5,27.3,27.3,0,0,0,4-8.6,24.6,24.6,0,0,0-.3-12.3,19.4,19.4,0,0,0-6.1-10.8,21.1,21.1,0,0,0-11.4-4.9,37.6,37.6,0,0,0-11.1.1c-3.8.6-7.3,1.2-10.4,1.9l-4.8,1.2-2.5.6c2.4,11.1,4.6,20.9,6.5,29.3l4,18c1.8,8,4.3,18.8,7.5,32.5s5.2,22.3,6.1,25.8l-14.4,3.3c-.8-3.6-2.2-10.4-4.4-20.4s-4.9-22.7-8.3-37.6L689.1,216q-2.7-11.9-10.2-42.9l8.7-2.2,14.4-3.5a137.2,137.2,0,0,1,15-2.4,52.7,52.7,0,0,1,14.8.6,31.5,31.5,0,0,1,16.1,7.7,28.7,28.7,0,0,1,8.9,15.6c1.8,8.2.9,15.7-3,22.4a68.6,68.6,0,0,1-11.6,15.5v.4c10.1,7.6,21,15.2,32.8,23Z" transform="translate(-42.4 -146.4)"/><path d="M930.4,264.4l-14,7c-.3-.7-2.1-5.2-5.6-13.5s-7.9-19-13.6-32l-53-.9-15.1,32.1-5.9,12.8-11.8-6.7q2.4-4.6,19.8-40.8c11.7-24.1,23.8-49.5,36.3-76l11.6.2q17.3,40.3,34,78.3C924.2,250.2,929.9,263.4,930.4,264.4Zm-38.1-50.1c-3-7.3-6.2-15-9.6-23L872,166.1h-.3c-3.1,6.5-6.9,14.6-11.3,24.1s-8,17.3-10.9,23.3h0l42.9.7Z" transform="translate(-42.4 -146.4)"/><path d="M1069.1,190.7l-11.7-2.9-31-7.5c-3,11.9-5.2,20.9-6.8,27.1s-3.5,14.6-6.1,25.2-4.8,20.7-7.3,31.2l-4.8,21.2-14.3-3.4,5.4-21.4c2.6-10.7,5.2-21.2,7.6-31.5s4.3-18.2,5.8-24.2,3.5-15.1,6.3-27.6l-30.1-7.1-12.7-2.9,2.8-12,21.8,5.3,27.4,6.6,35.2,8.3,15.3,3.5Z" transform="translate(-42.4 -146.4)"/><path d="M1090,315.5l-13.6-5.8c1.5-3.2,4.1-9.1,7.8-17.5s9-20.5,15.8-36.4l10.4-24.7q6.4-15.3,13.2-31.8l13.6,5.8q-5.2,11.7-12,27.3c-4.6,10.4-8.2,18.9-11,25.5-7.2,16.7-12.7,29.7-16.5,38.9S1091.4,312.2,1090,315.5Z" transform="translate(-42.4 -146.4)"/><path d="M1260.9,348.8a70.1,70.1,0,0,1-19.2,19.2,60.9,60.9,0,0,1-22,9.2,57.6,57.6,0,0,1-22.7-.1,56.6,56.6,0,0,1-19.8-8.8,58.2,58.2,0,0,1-15.1-15,53.2,53.2,0,0,1-8.2-19.4,61.4,61.4,0,0,1,.1-24.9,70.2,70.2,0,0,1,11.5-26,72.5,72.5,0,0,1,17.7-18.4,61.5,61.5,0,0,1,21.9-9.6,54.2,54.2,0,0,1,22.7-.3A58.7,58.7,0,0,1,1265,280a52.9,52.9,0,0,1,7.8,20,58.3,58.3,0,0,1-1,24.9A72.6,72.6,0,0,1,1260.9,348.8Zm-13.4-7.4a70.1,70.1,0,0,0,9.8-21.1,47.1,47.1,0,0,0,.9-22.3,41.8,41.8,0,0,0-5.3-13.5,37.9,37.9,0,0,0-10.7-10.8,38.6,38.6,0,0,0-14-6.1,41.4,41.4,0,0,0-15.3-.1,50.6,50.6,0,0,0-19.2,8.3,65.6,65.6,0,0,0-25.5,37.3,45.8,45.8,0,0,0-.3,20.8,38.6,38.6,0,0,0,16.1,24.4,37.2,37.2,0,0,0,13.9,6,40.3,40.3,0,0,0,15.1.2,48.2,48.2,0,0,0,18.4-7.3A54.9,54.9,0,0,0,1247.5,341.4Z" transform="translate(-42.4 -146.4)"/><path d="M1416.5,429.8l-24.9,20.5-20.1,16.6L1340.6,493c-7.6,6.6-11.7,10-12.2,10.4l-12.1-5.3q10.7-44.2,18.2-81.2t8.7-42.6h-.2l-45.1,38.1-30.7,26.3-9-10.8c1.2-.9,5.4-4.2,12.4-10l29.5-24.4,19.8-16.7,26.1-22.3,13.7,6.3c-.4,1.7-3.4,16.2-9.2,43.4s-10.8,52.7-15.5,76.4h.2q10.6-8.9,35.4-30.1l36.9-31.4Z" transform="translate(-42.4 -146.4)"/><path d="M464.2,1335.5a37.3,37.3,0,0,1-22.5,11.4,41.6,41.6,0,0,1-26.2-5.2,78.2,78.2,0,0,1-11.2-7.5c-3.8-2.9-7.9-6.5-12.2-10.5l-26,27.6-10.7-10.2,14-14.3c6.8-6.9,17.2-17.8,31.2-32.5,4.4-4.7,9.9-10.4,16.3-17.3s13.5-14.4,21.3-22.9l5.6,5.2,4.3,4.1a153.7,153.7,0,0,1,17.7,19.6,49.8,49.8,0,0,1,8.6,17.5,33.1,33.1,0,0,1-.2,18.2A39.8,39.8,0,0,1,464.2,1335.5Zm-11.1-10.4c4.3-4.5,6.9-9.3,7.8-14.3s.2-10.6-2.2-16.4a39,39,0,0,0-6.4-10.1q-4.2-4.8-9-9.3a5.7,5.7,0,0,0-1.1-1.1l-1.3-1.2c-.4.5-3.5,3.7-9.4,9.6l-13.7,14.2L407,1307.9l-7.1,7.5,1.4,1.3,1.2,1.1a121.5,121.5,0,0,0,9.8,8.3,41.1,41.1,0,0,0,10.5,5.8,29.5,29.5,0,0,0,16.1,1.7C444,1332.5,448.7,1329.7,453.1,1325.1Z" transform="translate(-42.4 -146.4)"/><path d="M578.8,1491.4l-14.3,2.7c-.5-1.8-2.1-8.6-4.8-20.3s-6.7-30-12.2-54.7l.5-.7a40.1,40.1,0,0,0,9.8.9,44.6,44.6,0,0,0,11.4-1.1,27.8,27.8,0,0,0,8.7-3.9c2.9-1.8,5.5-4.9,7.9-9.3a19.3,19.3,0,0,0,2.5-12.2,20.3,20.3,0,0,0-5.2-11.2,36.8,36.8,0,0,0-8.4-7.3c-3.3-2.1-6.3-3.9-9.1-5.5l-4.4-2.3-2.2-1.1-14.6,26.2-8.9,16.2-15.8,29.3c-6.7,12.4-10.9,20.2-12.5,23.4l-13-7.1c1.8-3.1,5.2-9.2,10.2-18.2s11.3-20.2,18.7-33.7c1.4-2.6,4-7.5,7.9-14.5s10.8-20.1,20.8-39l7.9,4.1,13.1,7a132.7,132.7,0,0,1,12.8,8,52.2,52.2,0,0,1,10.7,10.3,32.9,32.9,0,0,1,7.1,16.4,29.5,29.5,0,0,1-3.7,17.6c-4.1,7.4-9.8,12.4-17,14.8a68,68,0,0,1-19.1,4l-.2.4c2.6,12.3,5.8,25.3,9.5,38.9S578.5,1490.4,578.8,1491.4Z" transform="translate(-42.4 -146.4)"/><path d="M681,1533.1l-14.2-4,5.4-18.4c2.6-8.8,6.2-21.5,10.9-38.1l7.1-25.8c3-10.7,5.9-21.8,9-33.3l14.2,4c-2.4,8.2-5.2,17.7-8.3,28.6s-5.7,19.8-7.7,26.7c-4.9,17.5-8.6,31.1-11.2,40.7S681.9,1529.6,681,1533.1Z" transform="translate(-42.4 -146.4)"/><path d="M897.7,1443.4c-.3.7-7.2,14.1-20.7,40s-26.3,51.1-38.6,75.2l-11.9-.5q-16.7-42.3-32-79.8l-16-39.4,14.3-6.4c.3,1.3,5.2,13.9,14.5,38.1s18.2,46.8,26.9,68.2h.2c10.7-21,21.8-43.2,33.4-66.4s17.5-35.2,17.9-35.9Z" transform="translate(-42.4 -146.4)"/><path d="M1086.4,1519.6l-11.8,10.2-8.7-11.6c-5.4-7.2-12.5-16.5-21.2-27.7l-51.5,12.2c-2.9,15.1-5.1,26.7-6.7,34.9s-2.4,12.8-2.5,13.8l-13.2-3.5c.8-3.4,3.8-18.2,9.2-44.5s10.7-53.8,16.3-82.6l11.3-2.7q26.7,35,52.3,67.5Zm-49.3-39.1c-4.7-6.4-9.7-13-15-20s-10.8-14.1-16.5-21.7l-.4.2c-1.4,7.1-3,15.8-4.9,26.1s-3.5,18.7-4.8,25.3h0l41.7-9.9Z" transform="translate(-42.4 -146.4)"/><path d="M1241.9,1437.4l1.8,4.2c.9,2.3,2,4.8,3.2,7.5l-1.4.7-1.3.8c-12.8,7-25,11.7-36.7,13.9s-22.5,2.1-32.2-.5a54.1,54.1,0,0,1-18.9-9.4,57.2,57.2,0,0,1-15.1-18.2,50.8,50.8,0,0,1-6.4-20.7,57.1,57.1,0,0,1,1.9-20.3c2.6-9.4,8.1-18.6,16.2-27.8a114.4,114.4,0,0,1,29.6-23.3l2-1a9.6,9.6,0,0,1,1.6-.9c.5.9,1.5,2.3,2.8,4.3l4.2,6.4-1.3.8-1.4.7a116.3,116.3,0,0,0-19.1,13.4,71,71,0,0,0-14.6,16.5,46.9,46.9,0,0,0-7.2,22.8,40.9,40.9,0,0,0,5.2,22,45.1,45.1,0,0,0,15.4,16.7c6.4,4,14.1,6.1,23.2,6.2a73.8,73.8,0,0,0,22.8-3.4,120,120,0,0,0,22.1-9.3l1.4-.8Z" transform="translate(-42.4 -146.4)"/><path d="M1310.5,1244.7c.1.8.9,10.2,2.5,28.4s2.9,32.8,4,44c7.3,7.9,15.1,16.1,23.4,24.7l16.2,16.6-10.7,10.2-15.9-17.4c-8.2-8.8-15.7-16.8-22.4-23.8-11.9-1.9-26.5-4.2-43.7-6.7l-27.7-4,2.3-14.6,23.2,4c14.2,2.4,28.4,4.8,42.5,7h.1c-1.3-13.7-2.7-28-4.3-43.1s-2.4-22.9-2.5-23.7Z" transform="translate(-42.4 -146.4)"/><path class="a" d="M417.9,644.3,222,539.6c-8.4-4.5-11.3-15.7-6.3-25l3.7-6.9,3.7-7c4.9-9.3,15.8-13.2,24.3-8.7L444.3,597" transform="translate(-42.4 -146.4)"/><circle class="b" cx="825.4" cy="703.9" r="512"/><circle class="a" cx="825.4" cy="703.9" r="420"/><circle class="b" cx="825.4" cy="703.9" r="307"/><circle class="a" cx="825.4" cy="703.9" r="213"/><circle class="c" cx="825.4" cy="703.9" r="118"/><path class="b" d="M238.8,564.3l-44.4-25.5a60.7,60.7,0,0,0-50.1-4.6L42.4,569.7l34.9,20a84.9,84.9,0,0,0,70.1,6.6Z" transform="translate(-42.4 -146.4)"/><path class="b" d="M310.8,608.4l-33-18.9a45,45,0,0,0-37.2-3.5l-75.8,26.4,26,14.9a62.4,62.4,0,0,0,52,4.8Z" transform="translate(-42.4 -146.4)"/><path class="b" d="M375.8,639.8l-23.7-13.6a32.5,32.5,0,0,0-26.7-2.5l-54.3,19,18.6,10.7a44.8,44.8,0,0,0,37.3,3.4Z" transform="translate(-42.4 -146.4)"/><path class="c" d="M683.1,781.9a43.8,43.8,0,0,1-5.4-2.3L445.5,655.9,224.7,538.4c-7.7-4.1-10.3-14.3-5.8-22.7l3.3-6.4,3.4-6.3c4.5-8.4,14.4-12,22.1-7.9L468.5,612.7,700.9,736.4a22.7,22.7,0,0,1,4.6,3L821,828.1Z" transform="translate(-42.4 -146.4)"/><circle class="a" cx="902.6" cy="636.8" r="59.2"/><rect class="b" x="1195.3" y="750.7" width="41.8" height="41.76"/><rect class="b" x="1366.6" y="1000.1" width="60.9" height="60.88"/><rect class="b" x="1282.7" y="981.9" width="37.1" height="37.08"/><rect class="a" x="1154.1" y="948.9" width="51.3" height="51.2"/><rect class="b" x="1381.2" y="860.7" width="61.1" height="61.08"/><rect class="a" x="1253.6" y="891.5" width="51.3" height="51.2"/><rect class="b" x="1471" y="719.2" width="76.4" height="76.3"/><rect class="b" x="1312" y="826.3" width="35.7" height="35.68"/><rect class="b" x="1479" y="943" width="37.3" height="37.31"/><rect class="a" x="1096.7" y="725.1" width="51.3" height="51.2"/><rect class="b" x="1354.3" y="745.9" width="51.3" height="51.2"/><rect class="b" x="1419.8" y="611.7" width="51.3" height="51.2"/><rect class="a" x="1323.1" y="661.7" width="51.3" height="51.2"/><rect class="b" x="1352.5" y="554.9" width="56.8" height="56.79"/><rect class="a" x="1227" y="570.3" width="58.4" height="58.33"/><rect class="b" x="1479.1" y="444.3" width="51.3" height="51.2"/><rect class="b" x="1133.1" y="514.3" width="51.3" height="51.2"/><rect class="b" x="1277.9" y="444.1" width="51.3" height="51.2"/><rect class="a" x="1169.8" y="443.9" width="51.3" height="51.2"/><rect class="a" x="1195" y="371.7" width="51.3" height="51.2"/><rect class="b" x="1345.7" y="358.7" width="51.3" height="51.28"/><rect class="b" x="1461.7" y="323.5" width="35.5" height="35.48"/><rect class="a" x="1068" y="550.3" width="51.3" height="51.2"/><rect class="a" x="1122.4" y="290.3" width="36.1" height="36.08"/><rect class="b" x="1150.2" y="279.4" width="36.1" height="36.08"/><rect class="a" x="1397.8" y="475.9" width="35.9" height="35.84"/><path class="a" d="M682.1,781.6" transform="translate(-42.4 -146.4)"/><path class="a" d="M704.6,739.1" transform="translate(-42.4 -146.4)"/></svg>